<?xml version="1.0" encoding="utf-8"?>
<!-- Generator: Adobe Illustrator 16.0.0, SVG Export Plug-In . SVG Version: 6.00 Build 0)  -->
<!DOCTYPE svg PUBLIC "-//W3C//DTD SVG 1.1//EN" "http://www.w3.org/Graphics/SVG/1.1/DTD/svg11.dtd">
<svg version="1.1" id="Capa_1" xmlns="http://www.w3.org/2000/svg" xmlns:xlink="http://www.w3.org/1999/xlink" x="0px" y="0px"
	 width="841.889px" height="1190.551px" viewBox="0 0 841.889 1190.551" enable-background="new 0 0 841.889 1190.551"
	 xml:space="preserve">
<path fill="#FFFFFF" d="M668.889,591.735c0,1.039,0,1.039,0,2.077v148.874c0,1.039,0,2.078,0,3.021
	c-6.137,130.465-114.229,232.422-244.694,232.422c-135.562,0-244.693-110.074-244.693-244.693v-3.021v-2.076V459.193
	c7.175,1.039,16.332,4.061,24.451,9.158c0,0,1.039,0,1.039,1.038l0,0l6.137,4.061c11.234,8.118,29.548,25.488,34.646,49.938
	c0,0,0,0,0,1.039v141.7c0,10.195,8.119,18.314,18.314,18.314s18.313-8.119,18.313-18.314V525.464c0-1.039,0-2.077,0-4.059V306.259
	c0-1.039,0-1.039,0-2.077v-1.039v-77.504c0-7.175,6.137-13.217,13.217-13.217h42.859c7.174,0,13.216,6.137,13.216,13.217v211.085
	v12.272v150.857c0,10.195,8.119,18.314,18.314,18.314s18.313-8.119,18.313-18.314V447.958c0-7.174,6.137-13.216,13.217-13.216
	h42.859c6.137,0,11.234,5.098,12.271,11.234V598.91c0,10.195,8.119,18.314,18.314,18.314s18.314-8.119,18.314-18.314V450.98
	c0-1.039,0-2.077,0-4.061c0-7.174,6.137-13.216,13.216-13.216h42.859c6.137,0,11.234,4.059,12.272,10.195c0,1.039,0,2.077,0,2.077
	v174.268c0,10.195,8.118,18.314,18.314,18.314c10.195,0,18.313-8.119,18.313-18.314V510.17v-1.039
	c1.039-6.137,6.137-10.195,12.272-10.195h42.859c7.174,0,13.216,6.137,13.216,13.216v77.506l18.314,2.076L668.889,591.735
	L668.889,591.735z"/>
<g>
	<path d="M655.91,461.789h-42.859c-4.06,0-8.118,1.039-12.271,1.039v-15.293c0-27.566-22.469-50.979-50.979-50.979h-42.859
		c-12.271,0-23.411,4.06-31.625,11.234c-9.157-7.175-19.353-11.234-31.625-11.234h-42.859c-4.06,0-9.157,1.039-13.216,2.077V225.308
		c0.001-27.566-22.468-50.979-50.978-50.979H293.78c-27.565,0-50.978,22.468-50.978,50.979v77.41c0,2.077,0,3.021,0,5.098v146.893
		c-5.098-4.06-9.157-8.118-13.217-11.234l-2.076-2.076c-1.039-1.039-2.077-2.077-3.021-2.077c-2.076-1.039-3.021-2.076-4.059-2.076
		l0,0l0,0c-22.468-14.256-45.88-16.332-57.113-16.332c-5.098,0-9.158,0-9.158,0c-9.157,1.038-16.331,9.157-16.331,18.313v288.496
		c0,1.039,0,2.077,0,3.021v3.021c0,155.954,126.405,282.456,282.455,282.456c149.912,0,273.203-116.211,282.455-265.085
		c0-1.039,1.039-3.021,1.039-5.098V595.37c0-2.077,0-3.021,0-5.098v-77.506C706.889,485.295,684.515,461.789,655.91,461.789z
		 M669.222,592.348c0,1.039,0,1.039,0,2.077V743.3c0,1.039,0,2.077,0,3.021c-6.137,130.465-114.229,232.421-244.694,232.421
		c-135.562,0-244.693-110.074-244.693-244.693v-3.021v-2.077V459.806c7.175,1.039,16.332,4.061,24.451,9.158
		c0,0,1.039,0,1.039,1.038l0,0l6.137,4.061c11.234,8.118,29.548,25.488,34.646,49.938c0,0,0,0,0,1.039v141.7
		c0,10.195,8.119,18.313,18.314,18.313s18.313-8.118,18.313-18.313V526.078c0-1.039,0-2.077,0-4.059V306.873
		c0-1.039,0-1.039,0-2.077v-1.039v-77.504c0-7.175,6.137-13.217,13.217-13.217h42.859c7.174,0,13.216,6.137,13.216,13.217v211.085
		v12.272v150.857c0,10.195,8.119,18.314,18.314,18.314s18.313-8.119,18.313-18.314V448.572c0-7.174,6.137-13.216,13.217-13.216
		h42.859c6.137,0,11.234,5.098,12.271,11.234v152.933c0,10.195,8.119,18.314,18.314,18.314s18.314-8.119,18.314-18.314v-147.93
		c0-1.039,0-2.077,0-4.061c0-7.174,6.137-13.216,13.216-13.216h42.859c6.137,0,11.234,4.059,12.272,10.195c0,1.039,0,2.077,0,2.077
		v174.269c0,10.195,8.118,18.314,18.314,18.314c10.195,0,18.313-8.119,18.313-18.314V510.784v-1.039
		c1.039-6.137,6.137-10.195,12.272-10.195h42.859c7.174,0,13.216,6.137,13.216,13.216v77.506l18.314,2.076L669.222,592.348
		L669.222,592.348z"/>
</g>
</svg>
