<?xml version="1.0" encoding="utf-8"?>
<!-- Generator: Adobe Illustrator 16.0.0, SVG Export Plug-In . SVG Version: 6.00 Build 0)  -->
<!DOCTYPE svg PUBLIC "-//W3C//DTD SVG 1.1//EN" "http://www.w3.org/Graphics/SVG/1.1/DTD/svg11.dtd">
<svg version="1.1" id="Layer_1" xmlns="http://www.w3.org/2000/svg" xmlns:xlink="http://www.w3.org/1999/xlink" x="0px" y="0px"
	 width="282px" height="115px" viewBox="-132.75 32.25 282 115" enable-background="new -132.75 32.25 282 115"
	 xml:space="preserve">
<rect x="-125.75" y="91.25" fill="#ED1C23" width="89" height="49"/>
<rect x="-36.75" y="91.25" fill="#FFFF01" width="89" height="49"/>
<rect x="52.25" y="91.25" fill="#246D09" width="89" height="49"/>
<g>
	<path fill="#FFFFFF" d="M-84.721,62.863c0-4.84-0.054-7.505-0.164-10.225c-0.054-2.121-0.327-7.45-0.489-8.267
		c-0.326-1.36-1.632-2.121-2.882-2.121h-1.74c-0.272,0-0.326-0.163-0.326-0.489v-1.359c0-0.272,0.054-0.381,0.489-0.381
		c0.599,0,2.339,0.163,6.363,0.163c3.264,0,4.569-0.163,5.167-0.163c0.49,0,0.544,0.108,0.544,0.435v1.306
		c0,0.272-0.054,0.489-0.272,0.489h-1.522c-0.925,0-1.47,0.925-1.632,2.883c-0.38,3.644-1.251,15.935-1.251,23.114v9.3
		c0,0.815-0.054,1.794-0.815,1.794c-0.815,0-1.522-0.272-2.121-0.871c-0.925-0.87-3.589-3.752-6.853-7.614l-9.299-11.04
		c-0.925-1.087-8.431-10.442-9.681-12.236h-0.436v10.985c0,4.514,0.49,11.203,0.544,13.27c0.108,3.154,1.087,4.786,3.372,4.786h1.36
		c0.38,0,0.435,0.164,0.435,0.489v1.305c0,0.327-0.054,0.435-0.435,0.435c-0.544,0-3.807-0.163-6.364-0.163
		c-1.685,0-5.438,0.163-5.982,0.163c-0.217,0-0.272-0.108-0.272-0.489v-1.414c0-0.163,0.056-0.327,0.327-0.327h1.904
		c1.196,0,2.067-1.74,2.339-5.383c0.055-1.034,0.489-9.735,0.489-17.785v-4.895c0-3.208-1.958-6.254-4.678-6.309l-1.359-0.054
		c-0.272,0-0.326-0.217-0.326-0.381v-1.468c0-0.218,0.054-0.326,0.326-0.326c0.271,0,0.707,0.054,1.741,0.054
		c1.087,0.054,2.828,0.108,5.656,0.108c1.849,0,3.48-0.108,4.133-0.108c0.707,0,1.142,0.218,1.577,0.707l12.617,15.445l9.3,11.585
		h0.218V62.863z"/>
	<path fill="#FFFFFF" d="M-70.748,66.669c0.218,0,0.38,0.055,0.38,0.436c0.109,1.687,0.871,4.024,2.176,6.145
		c1.577,2.502,4.242,3.699,6.852,3.699c2.611,0,6.799-1.74,6.799-6.037c0-4.514-0.871-5.819-7.94-8.485
		c-1.632-0.597-5.112-2.338-7.886-4.73c-1.903-1.687-2.718-4.568-2.718-7.724c0-3.317,0.815-5.546,4.078-7.994
		c2.447-1.85,4.514-2.611,7.832-2.611c3.97,0,6.09,0.653,7.233,1.087c0.543,0.218,0.924,0.108,1.25-0.272l0.707-0.707
		c0.218-0.217,0.49-0.326,0.816-0.326c0.381,0,0.489,0.599,0.543,0.925l0.871,9.3c0,0.217-0.109,0.272-0.272,0.326l-1.196,0.381
		c-0.272,0.108-0.544,0-0.708-0.381c-0.597-1.578-1.522-3.698-3.371-5.657c-1.36-1.522-2.992-2.284-5.439-2.284
		c-4.079,0-5.764,3.535-5.764,4.949c0,2.012,0.054,3.644,1.414,5.004c1.414,1.468,4.514,2.772,7.178,3.535
		c2.611,0.761,4.732,2.121,6.961,4.133c2.121,1.903,2.992,4.296,2.992,8.103c0,6.635-4.732,12.019-11.91,12.019
		c-4.895,0-7.452-0.815-9.735-2.338c-0.653-0.436-0.979-0.599-1.251-0.599c-0.327,0-0.543,0.381-0.87,0.925
		c-0.326,0.598-0.598,0.652-0.979,0.652c-0.599,0-0.816-0.271-0.761-0.87l0.87-10.333c0.054-0.38,0.218-0.38,0.435-0.38
		L-70.748,66.669z"/>
</g>
<g>
	<path fill="#FFFFFF" d="M-19.631,74.501c-4.025-3.589-5.928-9.844-5.928-14.521c0-5.602,1.794-10.659,5.602-14.738
		c3.1-3.318,7.614-5.874,14.357-5.874c4.95,0,9.028,1.251,10.932,2.285c0.761,0.381,1.034,0.327,1.142-0.055l0.435-1.359
		c0.11-0.326,0.218-0.326,1.034-0.326c0.816,0,0.925,0.108,0.925,0.87c0,1.033,0.979,10.279,1.25,11.91
		c0.056,0.38,0,0.653-0.271,0.707l-1.197,0.326c-0.272,0.11-0.489-0.108-0.652-0.597c-0.598-2.176-2.067-4.95-4.351-7.288
		c-2.339-2.284-5.221-4.079-9.354-4.079c-7.94,0-11.312,7.233-11.257,15.282c0,3.427,0.978,10.116,4.84,14.195
		c3.535,3.643,6.635,4.078,8.484,4.078c6.2,0,10.823-2.828,12.835-5.818c0.272-0.436,0.543-0.653,0.815-0.436l0.925,0.816
		c0.163,0.108,0.217,0.326,0,0.653C7.779,75.1,2.504,79.504-5.164,79.504C-12.397,79.504-16.205,77.547-19.631,74.501z"/>
	<path fill="#FFFFFF" d="M18.271,66.669c0.218,0,0.381,0.055,0.381,0.436c0.108,1.687,0.87,4.024,2.175,6.145
		c1.577,2.502,4.242,3.699,6.852,3.699c2.611,0,6.799-1.74,6.799-6.037c0-4.514-0.87-5.819-7.94-8.485
		c-1.632-0.597-5.112-2.338-7.885-4.73c-1.904-1.687-2.719-4.568-2.719-7.724c0-3.317,0.815-5.546,4.078-7.994
		c2.447-1.85,4.514-2.611,7.832-2.611c3.97,0,6.091,0.653,7.233,1.087c0.543,0.218,0.924,0.108,1.25-0.272l0.707-0.707
		c0.218-0.217,0.49-0.326,0.816-0.326c0.381,0,0.489,0.599,0.544,0.925l0.87,9.3c0,0.217-0.109,0.272-0.271,0.326l-1.197,0.381
		c-0.271,0.108-0.544,0-0.707-0.381c-0.598-1.578-1.522-3.698-3.371-5.657c-1.36-1.522-2.992-2.284-5.439-2.284
		c-4.079,0-5.764,3.535-5.764,4.949c0,2.012,0.054,3.644,1.415,5.004c1.413,1.468,4.514,2.772,7.178,3.535
		c2.611,0.761,4.732,2.121,6.961,4.133c2.121,1.903,2.992,4.296,2.992,8.103c0,6.635-4.732,12.019-11.91,12.019
		c-4.895,0-7.452-0.815-9.735-2.338c-0.653-0.436-0.979-0.599-1.251-0.599c-0.327,0-0.543,0.381-0.87,0.925
		c-0.327,0.598-0.599,0.652-0.979,0.652c-0.598,0-0.816-0.271-0.761-0.87l0.87-10.333c0.054-0.38,0.218-0.38,0.435-0.38
		L18.271,66.669z"/>
</g>
<g>
	<path fill="#FFFFFF" d="M88.373,64.521c-0.435,1.142-3.099,8.593-3.099,10.333c0,1.196,0.489,2.501,2.121,2.501h1.902
		c0.545,0,0.599,0.218,0.599,0.435v1.197c0,0.435-0.054,0.597-0.49,0.597c-0.707,0-2.936-0.163-7.396-0.163
		c-3.97,0-5.167,0.163-5.928,0.163c-0.327,0-0.381-0.325-0.381-0.707v-1.033c0-0.325,0.054-0.489,0.381-0.489h1.413
		c1.306,0,2.611-0.761,3.699-2.393c0.761-1.142,4.622-10.604,6.417-15.391c0.436-1.088,4.84-12.781,5.33-14.249
		c0.163-0.544,0.436-1.251,0.055-1.849c-0.164-0.218-0.381-0.49-0.381-0.707c0-0.164,0.108-0.381,0.543-0.49
		c1.741-0.381,5.275-1.794,6.092-2.72c0.271-0.271,0.436-0.489,0.707-0.489c0.326,0,0.435,0.326,0.598,0.925
		c1.033,3.426,5.276,15.609,6.31,19.089c1.25,4.242,4.785,14.357,5.548,15.826c0.924,1.794,2.337,2.447,3.154,2.447h1.849
		c0.326,0,0.381,0.218,0.381,0.489v1.033c0,0.327-0.055,0.707-0.489,0.707c-1.033,0-2.177-0.163-9.138-0.163
		c-4.514,0-6.417,0.163-7.505,0.163c-0.544,0-0.599-0.325-0.599-0.707v-1.033c0-0.271,0.055-0.489,0.326-0.489h1.522
		c1.47,0,1.959-0.543,1.632-1.958c-0.488-1.958-2.609-8.918-3.263-10.877H88.373z M99.795,62.346l-4.078-14.412
		c-0.219-0.816-0.327-1.197-0.599-1.197c-0.327,0-0.49,0.218-0.653,0.707c-0.271,0.707-4.948,13.542-5.385,14.901H99.795z"/>
</g>
</svg>
